<svg id="visual" viewBox="0 0 900 600" width="900" height="600" xmlns="http://www.w3.org/2000/svg" xmlns:xlink="http://www.w3.org/1999/xlink" version="1.1"><rect x="0" y="0" width="900" height="600" fill="#002233"></rect><path d="M0 485L21.5 477.5C43 470 86 455 128.8 447.3C171.7 439.7 214.3 439.3 257.2 436.7C300 434 343 429 385.8 426.2C428.7 423.3 471.3 422.7 514.2 417.2C557 411.7 600 401.3 642.8 395.7C685.7 390 728.3 389 771.2 396.3C814 403.7 857 419.3 878.5 427.2L900 435L900 601L878.5 601C857 601 814 601 771.2 601C728.3 601 685.7 601 642.8 601C600 601 557 601 514.2 601C471.3 601 428.7 601 385.8 601C343 601 300 601 257.2 601C214.3 601 171.7 601 128.8 601C86 601 43 601 21.5 601L0 601Z" fill="#0066FF" stroke-linecap="round" stroke-linejoin="miter"></path></svg>